<?xml version="1.0" encoding="UTF-8"?>
<svg xmlns="http://www.w3.org/2000/svg" width="512" height="512" viewBox="0 0 512 512" fill="none">
  <g clip-path="url(#clip0_47_312)">
    <path d="M257.183 166.575C279.837 166.575 298.201 148.277 298.201 125.704C298.201 103.132 279.837 84.8333 257.183 84.8333C234.53 84.8333 216.166 103.132 216.166 125.704C216.166 148.277 234.53 166.575 257.183 166.575Z" fill="#082D4A"></path>
    <path d="M246.623 181.442C220.963 176.544 201.451 154.301 200.851 127.463C200.801 127.05 200.708 126.655 200.671 126.236L200.851 124.848C200.894 122.985 201.024 121.147 201.247 119.333L194.58 123.139L184.842 128.426L184.477 128.789L96.1452 178.13L95.9038 178.401L132.211 242.921L132.378 243.125L132.687 243.748L155.995 285.168C160.805 293.711 167.144 301.125 174.838 307.188C182.688 313.381 191.565 317.89 201.216 320.598C202.807 321.042 204.416 321.419 206.007 321.752L207.047 321.968C208.675 322.288 210.316 322.578 212.061 322.8C213.677 323.01 215.305 323.146 217.107 323.263L217.942 323.312C219.255 323.374 220.567 323.417 221.88 323.417L223.279 323.392C224.851 323.362 226.423 323.269 228.157 323.121L228.961 323.053C230.633 322.893 232.298 322.683 233.858 322.424L234.397 322.325C235.981 322.054 237.56 321.721 239.151 321.338L239.863 321.172C241.615 320.734 243.336 320.24 244.753 319.778L245.174 319.636C246.994 319.038 248.808 318.359 250.628 317.594L250.925 317.477C251.897 317.064 252.869 316.62 253.89 316.132L254.726 315.744C255.747 315.244 256.75 314.714 257.865 314.103L258.236 313.93C258.236 313.93 258.273 313.893 258.36 313.708L198.325 207.053L246.61 181.442H246.623Z" fill="#EC1D25"></path>
    <path d="M407.172 363.257L412.663 360.191C414.112 359.383 415.195 358.008 415.641 356.416C416.099 354.813 415.895 353.116 415.077 351.655L354.987 244.894C344.351 226.001 326.981 212.369 306.063 206.509C298.802 204.473 291.343 203.437 283.895 203.437C270.116 203.437 256.398 207.033 244.221 213.837C242.779 214.645 241.695 216.02 241.243 217.606C240.791 219.215 240.996 220.912 241.807 222.374L338.607 394.376C339.436 395.844 340.78 396.899 342.395 397.349C342.952 397.503 343.528 397.584 344.104 397.584C345.169 397.584 346.24 397.306 347.174 396.782L407.166 363.257" fill="#082D4A"></path>
    <path d="M289.813 332.065L328.095 400.089C328.628 401.026 329.228 401.908 329.897 402.729L304.262 417.051C292.612 423.559 279.426 427.001 266.129 427.001C258.929 427.001 251.748 426.014 244.79 424.059C224.64 418.409 207.92 405.307 197.712 387.172C197.297 386.438 197.192 385.556 197.421 384.748C197.65 383.946 198.201 383.243 198.931 382.836" fill="#082D4A"></path>
  </g>
  <defs>
    <clipPath id="clip0_47_312">
      <rect width="319.972" height="342.167" fill="white" transform="translate(95.9038 84.8333)"></rect>
    </clipPath>
  </defs>
</svg>
