<?xml version="1.0" encoding="UTF-8"?>
<svg xmlns="http://www.w3.org/2000/svg" version="1.2" viewBox="0 0 990 183" width="990" height="183">
  <title>with white bg -horizontal transparent-svg</title>
  <defs>
    <clipPath id="cp1">
      <path d="m0.61 2h169v180.92h-169z"></path>
    </clipPath>
  </defs>
  <style>
		.s0 { fill: #082d4a } 
		.s1 { fill: #ec1d25 } 
		.s2 { fill: none;stroke: #082d4a;stroke-width: 1.3 } 
	</style>
  <g id="Clip-Path" clip-path="url(#cp1)">
    <g>
      <path class="s0" d="m85.8 45.2c12 0 21.7-9.7 21.7-21.6 0-11.9-9.7-21.6-21.7-21.6-12 0-21.7 9.7-21.7 21.6 0 11.9 9.7 21.6 21.7 21.6z"></path>
      <path class="s1" d="m80.2 53.1c-13.5-2.6-23.8-14.4-24.2-28.6q0-0.3-0.1-0.6l0.1-0.7q0.1-1.5 0.2-3l-3.5 2.1-5.1 2.7-0.2 0.2-46.7 26.1-0.1 0.2 19.2 34.1 0.1 0.1 0.1 0.3 12.3 21.9c2.6 4.5 5.9 8.5 10 11.7 4.1 3.2 8.8 5.6 13.9 7.1q1.3 0.3 2.6 0.6l0.5 0.1q1.3 0.2 2.7 0.4c0.8 0.1 1.7 0.2 2.6 0.3h0.5q1 0 2 0h0.8c0.8 0 1.6 0 2.6-0.1h0.4q1.3-0.2 2.6-0.4h0.3q1.2-0.2 2.5-0.6h0.3c1-0.3 1.9-0.5 2.6-0.8l0.2-0.1q1.5-0.4 2.9-1l0.2-0.1q0.7-0.3 1.6-0.7l0.4-0.2c0.5-0.3 1.1-0.6 1.7-0.9l0.1-0.1q0 0 0.1-0.1l-31.7-56.4 25.5-13.5z"></path>
      <path class="s0" d="m165 149.2l2.9-1.6c0.8-0.4 1.3-1.2 1.6-2 0.2-0.9 0.1-1.7-0.3-2.5l-31.8-56.5c-5.6-10-14.7-17.2-25.8-20.3-3.8-1-7.8-1.6-11.7-1.6-7.3 0-14.5 1.9-21 5.5-0.7 0.4-1.3 1.2-1.5 2-0.3 0.9-0.2 1.8 0.3 2.5l51.1 91c0.4 0.7 1.1 1.3 2 1.5q0.4 0.2 0.9 0.2c0.6 0 1.1-0.2 1.6-0.5 0 0 31.7-17.7 31.7-17.7z"></path>
      <path class="s0" d="m103 132.7l20.2 36q0.5 0.7 1 1.4l-13.5 7.6c-6.2 3.4-13.2 5.2-20.2 5.2-3.8 0-7.6-0.5-11.3-1.5-10.6-3-19.4-10-24.8-19.5-0.2-0.4-0.3-0.9-0.2-1.3 0.1-0.4 0.4-0.8 0.8-1"></path>
    </g>
  </g>
  <path fill-rule="evenodd" class="s0" d="m233.9 87h-20.8v-84.5h20.8zm114.3-84.5v84.5h-17.1l-42.8-49v49h-20.8v-84.5h17.3l42.7 50.4v-50.4zm54.5 18.3v17.7h39.6v18.2h-39.6v30.3h-20.8v-84.5h65.3v18.3zm115.7-20.2c12.6 0 23.2 4.3 31.9 12.8 8.7 8.6 13.1 19.1 13.1 31.5 0 12.3-4.4 22.7-13.1 31.2-8.7 8.6-19.3 12.8-31.9 12.8-12.6 0-23.4-4.2-32.1-12.8-8.7-8.5-13-18.9-13-31.2 0-12.4 4.3-22.9 13-31.5 8.7-8.5 19.5-12.8 32.1-12.8zm0 69.2c6.8 0 12.6-2.2 17.3-7 4.5-4.8 6.9-10.8 6.9-17.9 0-7.2-2.4-13.3-6.9-18.1-4.7-4.8-10.5-7.2-17.3-7.2-7 0-12.8 2.4-17.3 7.2-4.7 4.8-6.9 10.9-6.9 18.1 0 7.1 2.2 13.1 6.9 17.9 4.5 4.8 10.3 7 17.3 7z"></path>
  <path fill-rule="evenodd" class="s1" d="m627.2 0.6c9.2 0 16.9 2.3 23.2 6.6 6.2 4.2 10.1 10.3 11.8 17.9l-20.5 4.1q-1.1-5.6-5.3-8.7c-2.8-2-5.9-3.1-9.4-3.1-3.4 0-6.2 0.9-8.2 2.5-2.2 1.6-3.2 3.7-3.2 6 0 3.8 2.3 6.1 6.8 7.1l17.6 3.9c15.3 3.6 23.2 11.8 23.2 24.6 0 8.7-3.4 15.4-10 20.2-6.7 4.8-15 7.2-24.8 7.2-9.9 0-18.3-2.2-25.2-6.7-6.8-4.5-10.8-10.8-11.8-18.9l21.4-4.2q3.1 12.5 16.7 12.5c3.8 0 6.8-0.7 9.1-2.4 2.2-1.5 3.4-3.6 3.4-6.3 0-2-0.7-3.5-1.8-4.8q-1.7-1.7-6-2.6l-17.7-3.8c-15.1-3.4-22.7-11.6-22.7-24.5 0-8.1 3-14.6 9.2-19.4q9.1-7.2 24.2-7.2zm151.3 86.4h-22.2l-5.9-15.4h-35.6l-5.9 15.4h-22.3l35.3-84.5h21.3zm-35-33.3l-10.9-27.8-10.7 27.8zm97.3-16.5h46.5c0.3 2.7 0.5 5.3 0.5 7.7 0 12.8-4.2 23.3-12.4 31.6-8.3 8.3-18.8 12.4-31.4 12.4-12.8 0-23.6-4.2-32.4-12.8-8.8-8.4-13.1-18.9-13.1-31.4 0-12.3 4.3-22.7 13-31.3q13-12.8 32.2-12.8c9.5 0 18.1 2.2 25.7 6.7 7.4 4.4 12.6 10.6 15.5 18.6l-20.1 5.8q-6.2-12.1-21.1-12.1c-7 0-12.8 2.4-17.3 7.2-4.7 4.8-7 10.9-7 17.9 0 7.2 2.3 13.3 7.1 18.1q7.2 7.2 17.8 7.2c5.4 0 10.1-1.3 14-4.1 3.9-2.6 6.7-6.3 8.3-11.1h-25.8zm143.5 31.9v17.9h-65.8v-84.5h65.5v17.9h-44.7v15.9h41v16.9h-41v15.9z"></path>
  <path class="s2" d="m206.9 144.9h68.1"></path>
  <path fill-rule="evenodd" class="s0" d="m331 129.6h-11.9v28.9h-5.5v-28.9h-11.8v-4.9h29.2zm47 24v4.9h-25.2v-33.8h25.2v4.9h-19.8v9.5h18.3v4.9h-18.3v9.6zm39.1 0.5c2.7 0 5.1-0.7 7.1-2.2q2.9-2.1 4.1-6.3l5.2 1.1c-0.9 3.9-2.9 7-5.8 9.2-3.1 2.2-6.5 3.3-10.6 3.3-4.9 0-9.1-1.7-12.5-5.1-3.4-3.4-5.1-7.6-5.1-12.5 0-4.9 1.7-9.1 5.1-12.5 3.4-3.4 7.6-5.1 12.5-5.1 4 0 7.5 1.1 10.5 3.2q4.5 3.4 5.9 8.9l-5.2 1.5q-1.2-4.2-4.1-6.4c-2-1.4-4.4-2.1-7.1-2.1-3.4 0-6.4 1.2-8.7 3.6-2.3 2.4-3.5 5.3-3.5 8.9q0 5.3 3.5 8.9c2.3 2.4 5.3 3.6 8.7 3.6zm68.6-29.4v33.8h-5.4v-14.5h-18.3v14.5h-5.4v-33.8h5.4v14.3h18.3v-14.3zm55.1 0v33.8h-4.6l-20.5-24.3v24.3h-5.4v-33.8h4.6l20.4 24.7v-24.7zm40.7-0.7c5 0 9.1 1.7 12.5 5.1q5.2 5.2 5.2 12.5 0 7.4-5.2 12.5c-3.4 3.4-7.5 5.1-12.5 5.1-4.9 0-9.1-1.7-12.5-5.1-3.4-3.4-5.1-7.5-5.1-12.5 0-4.9 1.7-9.1 5.1-12.5q5.1-5.1 12.5-5.1zm0 30.1c3.5 0 6.3-1.2 8.7-3.6 2.3-2.4 3.5-5.3 3.5-8.9 0-3.5-1.2-6.5-3.5-8.9q-3.5-3.6-8.7-3.6c-3.4 0-6.3 1.2-8.7 3.6q-3.5 3.6-3.5 8.9 0 5.3 3.5 8.9c2.4 2.4 5.3 3.6 8.7 3.6zm64.6-0.5v4.9h-23.9v-33.8h5.4v28.9zm37.4-29.6c5 0 9.1 1.7 12.5 5.1q5.2 5.2 5.2 12.5 0 7.4-5.2 12.5c-3.4 3.4-7.5 5.1-12.5 5.1-4.9 0-9.1-1.7-12.5-5.1-3.4-3.4-5.1-7.5-5.1-12.5 0-4.9 1.7-9.1 5.1-12.5q5.1-5.1 12.5-5.1zm0 30.1c3.5 0 6.3-1.2 8.7-3.6 2.3-2.4 3.5-5.3 3.5-8.9 0-3.5-1.2-6.5-3.5-8.9q-3.5-3.6-8.7-3.6c-3.4 0-6.3 1.2-8.7 3.6q-3.5 3.6-3.5 8.9 0 5.3 3.5 8.9c2.4 2.4 5.3 3.6 8.7 3.6zm55.3-14.8h18.6c0 1.2 0.1 2 0.1 2.3q0 7.6-4.8 12.6-4.8 5-12.3 5c-5 0-9.2-1.7-12.6-5.1q-5.1-5.1-5.1-12.5c0-4.9 1.6-9.1 5.1-12.5q5-5.1 12.5-5.1c3.7 0 7 0.9 9.9 2.6 3 1.8 5 4.2 6.2 7.4l-4.9 1.7q-3.3-6.6-11.2-6.6-5.2 0-8.7 3.6c-2.3 2.4-3.4 5.3-3.4 8.9 0 3.6 1.1 6.5 3.5 8.9 2.4 2.4 5.3 3.6 8.9 3.6 3 0 5.6-0.9 7.7-2.7 2.1-1.8 3.4-4.2 3.9-7.1h-13.4zm51.2-9.8v24.1h7.4v4.9h-20.3v-4.9h7.4v-24.1h-7.4v-4.9h20.3v4.9zm54.5 24.1v4.9h-25.2v-33.9h25.1v4.9h-19.7v9.6h18.2v4.8h-18.2v9.7zm35.4-29.7q5.1 0 8.6 2.6c2.3 1.7 3.8 4 4.4 7l-5.4 1.1q-0.5-2.7-2.6-4.3-2.1-1.7-5.1-1.7c-2.1 0-3.6 0.5-4.8 1.5q-1.9 1.4-1.9 3.7c0 1.2 0.4 2.1 1.1 2.7 0.7 0.7 1.7 1.2 3.2 1.5l7.4 1.6c5.7 1.3 8.7 4.4 8.7 9.2q-0.1 4.8-3.6 7.6-3.6 2.8-9.4 2.8c-3.8 0-6.9-0.9-9.5-2.7-2.6-1.7-4.1-4.2-4.5-7.4l5.7-1.2q0.6 3.2 3 4.8c1.5 1.2 3.5 1.7 5.8 1.7 2.2 0 3.9-0.5 5.2-1.5 1.2-0.9 1.9-2.2 1.9-3.8 0-1.3-0.4-2.2-1.1-2.9q-1.1-1-3.6-1.6l-7.4-1.5c-5.7-1.3-8.6-4.3-8.6-9.2 0-3 1.2-5.4 3.4-7.2 2.3-1.8 5.3-2.8 9.1-2.8z"></path>
  <path class="s2" d="m921.5 144.9h68.1"></path>
</svg>
